# xmcd
#
# Track frame offsets: 
#        150
#        12312
#        25455
#        38212
#        50587
#        64770
#        77217
#        90015
#        104307
#        117990
#        129435
#        142282
#        155317
#        165620
#        178747
#        191055
#        202110
#        213710
#        227817
#        239112
#        252967
#        265122
#        278540
#        293015
#        303375
#
# Disc length: 4214 seconds
#
# Revision: 14
# Processed by: cddbd v1.5.2PL0 Copyright (c) Steve Scherf et al.
# Submitted via: ExactAudioCopyFreeDBPlugin 1.0
#
DISCID=70107419
DTITLE=Various Artist - Martin Scorsese Presents the Blues [disc 3]
DYEAR=2003
DGENRE=Blues
TTITLE0=Memphis Slim - Mother Earth
TTITLE1=Percy Mayfield - Please Send Me Someone To Love
TTITLE2=Jackie Brenston - Rocket 88
TTITLE3=Elmore James - Dust My Broom
TTITLE4=Rosco Gordon - No More Doggin'
TTITLE5=Little Walter - Juke
TTITLE6=Big Mama Thornton - Hound Dog
TTITLE7=Lowell Fulson - Reconsider Baby
TTITLE8=Guitar Slim - The Things That I Used To Do
TTITLE9=Professor Longhair - In The Night
TTITLE10=Muddy Waters - (I'm Your) Hoochie Coochie Man
TTITLE11=J.B. Lenoir - Eisenhower Blues
TTITLE12=Fats Domino - Blue Monday
TTITLE13=Ray Charles - Hard Times
TTITLE14=Smiley Lewis - I Hear You Knockin'
TTITLE15=Elvis Presley - Mystery Train
TTITLE16=Sonny Boy Williamson II - Don't Start Me To Talkin'
TTITLE17=Howlin' Wolf - Smokestack Lightnin'
TTITLE18=Bo Diddley - Who Do You Love
TTITLE19=Slim Harpo - I'm A King Bee
TTITLE20=Chuck Berry - Johnny B. Goode
TTITLE21=Bobby ''Blue'' Bland - Farther Up The Road
TTITLE22=Otis Rush - So Many Roads, So Many Trains
TTITLE23=Buddy Guy - First Time I Met The Blues
TTITLE24=Jimmy Reed - Big Boss Man
EXTD=
EXTT0=
EXTT1=
EXTT2=
EXTT3=
EXTT4=
EXTT5=
EXTT6=
EXTT7=
EXTT8=
EXTT9=
EXTT10=
EXTT11=
EXTT12=
EXTT13=
EXTT14=
EXTT15=
EXTT16=
EXTT17=
EXTT18=
EXTT19=
EXTT20=
EXTT21=
EXTT22=
EXTT23=
EXTT24=
PLAYORDER=
